<?xml version="1.0" standalone="no"?>
<!DOCTYPE svg PUBLIC "-//W3C//DTD SVG 20010904//EN"
 "http://www.w3.org/TR/2001/REC-SVG-20010904/DTD/svg10.dtd">
<svg version="1.0" xmlns="http://www.w3.org/2000/svg"
 width="640.000000pt" height="181.000000pt" viewBox="0 0 640.000000 181.000000"
 preserveAspectRatio="xMidYMid meet">

<g transform="translate(0.000000,181.000000) scale(0.100000,-0.100000)"
fill="#000000" stroke="none">
<path d="M6380 1231 c0 -13 -7 -18 -22 -17 -13 1 -36 -8 -53 -20 -16 -12 -40
-20 -52 -18 -12 2 -25 -1 -28 -6 -4 -6 -10 -8 -15 -5 -5 3 -20 0 -32 -7 -13
-6 -33 -11 -46 -9 -13 1 -25 -4 -28 -14 -4 -9 -13 -14 -20 -11 -8 3 -14 1 -14
-5 0 -6 -5 -7 -11 -3 -10 6 -40 -5 -181 -64 -21 -9 -38 -19 -38 -23 0 -4 -11
-10 -25 -13 -14 -3 -22 -12 -20 -19 3 -7 -20 -26 -56 -45 -33 -19 -58 -36 -55
-39 10 -11 -28 -62 -54 -73 -15 -6 -43 -12 -63 -13 -21 -1 -37 -6 -37 -11 0
-4 -7 -6 -15 -3 -8 4 -17 2 -20 -3 -4 -6 -21 -10 -40 -10 -24 0 -35 -5 -40
-19 -6 -21 -29 -30 -89 -37 -22 -2 -44 -8 -50 -13 -6 -5 -23 -10 -38 -11 -16
0 -40 -2 -55 -3 -16 -1 -37 -10 -47 -19 -11 -10 -28 -18 -37 -18 -10 0 -21 -5
-24 -11 -6 -9 -50 -31 -67 -33 -3 -1 -10 -4 -14 -9 -4 -4 -14 -7 -22 -7 -9 0
-24 -8 -34 -17 -17 -15 -24 -15 -66 -4 -68 20 -94 19 -121 -1 -23 -18 -25 -18
-57 7 -19 15 -34 24 -34 21 0 -3 -18 1 -41 9 -22 8 -63 17 -91 19 -27 3 -61
13 -76 22 -37 24 -171 29 -188 6 -10 -14 -15 -14 -49 2 -21 10 -49 19 -62 19
-12 0 -23 3 -23 7 0 4 -12 16 -27 25 -35 23 -114 28 -150 10 -15 -8 -38 -15
-50 -15 -12 0 -23 -5 -25 -10 -2 -6 -21 -12 -43 -14 -60 -5 -115 -25 -115 -43
0 -11 -6 -14 -21 -10 -11 3 -35 -1 -53 -8 -19 -8 -36 -11 -40 -8 -4 4 -9 -2
-12 -13 -6 -22 -27 -23 -101 -6 -28 6 -43 6 -46 -1 -1 -5 -20 -11 -41 -12 -20
-2 -45 -10 -54 -18 -57 -53 -56 -53 -87 -42 -17 5 -36 16 -43 22 -19 18 -49
16 -56 -4 -6 -14 -10 -13 -34 10 -25 24 -32 26 -61 17 -19 -5 -39 -6 -45 -2
-6 4 -20 7 -31 8 -11 0 -30 2 -43 2 -12 1 -36 15 -52 31 -20 19 -46 31 -75 35
-24 4 -49 14 -55 21 -7 8 -20 15 -30 15 -10 0 -20 6 -23 14 -3 7 -25 23 -49
35 -24 11 -61 36 -81 55 -46 42 -105 78 -117 71 -5 -3 -11 4 -15 15 -8 24 -33
27 -42 4 -7 -18 -50 -38 -76 -35 -9 1 -17 -1 -17 -6 0 -4 -10 -9 -22 -10 -13
-1 -36 -4 -53 -8 -16 -3 -43 -6 -60 -8 -16 -1 -39 -10 -49 -19 -11 -10 -28
-18 -37 -18 -10 0 -21 -5 -24 -11 -9 -13 -56 -33 -72 -30 -7 1 -13 -3 -13 -9
0 -5 -7 -10 -16 -10 -9 0 -28 -7 -43 -16 -23 -14 -33 -14 -71 -3 -52 15 -85
13 -113 -6 -17 -12 -23 -12 -41 0 -42 27 -128 55 -180 59 -29 2 -65 11 -79 20
-33 22 -137 34 -137 16 0 -10 -3 -10 -15 0 -13 11 -18 10 -29 -6 -14 -18 -15
-18 -51 -1 -20 9 -40 15 -45 12 -5 -3 -11 -1 -15 5 -4 6 -10 8 -15 5 -5 -3
-12 0 -17 7 -18 28 -46 41 -100 44 -31 3 -59 1 -62 -4 -9 -13 -102 -44 -147
-48 -58 -5 -94 -21 -94 -40 0 -13 -6 -15 -30 -11 -16 4 -32 3 -35 -2 -2 -5
-21 -12 -41 -15 -25 -5 -34 -11 -30 -21 4 -10 -2 -13 -25 -10 -16 3 -42 7 -59
9 -16 3 -34 7 -39 10 -5 3 -14 -1 -21 -9 -8 -9 -23 -13 -39 -10 -17 3 -33 -2
-46 -15 -11 -10 -30 -28 -43 -40 l-23 -21 -55 26 c-53 25 -56 26 -69 8 -12
-17 -15 -16 -40 9 -22 22 -31 25 -55 18 -16 -5 -38 -6 -50 -3 -20 5 -20 3 -20
-346 l0 -351 3200 0 3200 0 0 625 c0 410 -3 625 -10 625 -5 0 -10 -8 -10 -19z"/>
<path d="M4850 903 c0 -4 5 -15 10 -23 8 -13 10 -13 10 2 0 9 -4 20 -10 23 -5
3 -10 3 -10 -2z"/>
</g>
</svg>
