<svg id="e1jPs2ZJUqw1" xmlns="http://www.w3.org/2000/svg" xmlns:xlink="http://www.w3.org/1999/xlink" viewBox="0 0 300 300" shape-rendering="geometricPrecision" text-rendering="geometricPrecision" project-id="64f6b46dc72c47b5ba77756644bb46eb" export-id="3a18ccfe77b941caaaf94fcad6cbf5ce" cached="false"><defs><filter id="e1jPs2ZJUqw2-filter" x="-150%" y="-150%" width="400%" height="400%"><feComponentTransfer id="e1jPs2ZJUqw2-filter-brightness-0" result="result"><feFuncR id="e1jPs2ZJUqw2-filter-brightness-0-R" type="linear" slope="0.86"/><feFuncG id="e1jPs2ZJUqw2-filter-brightness-0-G" type="linear" slope="0.86"/><feFuncB id="e1jPs2ZJUqw2-filter-brightness-0-B" type="linear" slope="0.86"/></feComponentTransfer><feColorMatrix id="e1jPs2ZJUqw2-filter-hue-rotate-0" type="hueRotate" values="-354" result="result"/></filter></defs><g style="mix-blend-mode:darken;isolation:isolate" transform="matrix(3.307827 0 0 3.300224 110.306075 113.697536)" paint-order="markers stroke fill" filter="url(#e1jPs2ZJUqw2-filter)"><rect width="6" height="3" rx="1.5" ry="1.5" transform="translate(9 2.5)" fill="none" stroke="#000" stroke-width="2" stroke-linecap="round" stroke-linejoin="round"/><path d="M18,4c.552285,0,1,.447715,1,1v15c0,.552285-.447715,1-1,1h-12c-.552285,0-1-.447715-1-1L5,5c0-.552285.447715-1,1-1" transform="matrix(.837285 0 0 1 1.95258 0)" fill="none" stroke="#000" stroke-width="2" stroke-linecap="round" stroke-linejoin="round"/></g><polygon points="50,22.57 59.89,42.6 82,45.82 66,61.41 69.78,83.43 50,73.04 30.22,83.43 34,61.41 18,45.82 40.11,42.6 50,22.57" transform="matrix(.310109 0 0 0.335451 134.619105 137.171433)"/></svg>
